<svg width="32" height="32" viewBox="0 0 512 512" fill="none" xmlns="http://www.w3.org/2000/svg">
  <circle cx="256" cy="256" r="256" fill="url(#gradient)"/>
  <defs>
    <linearGradient id="gradient" x1="0%" y1="0%" x2="100%" y2="100%">
      <stop offset="0%" style="stop-color:#3B82F6;stop-opacity:1" />
      <stop offset="100%" style="stop-color:#8B5CF6;stop-opacity:1" />
    </linearGradient>
  </defs>
  <ellipse cx="256" cy="280" rx="80" ry="60" fill="white" opacity="0.95"/>
  <circle cx="256" cy="220" r="45" fill="white" opacity="0.95"/>
  <circle cx="240" cy="210" r="8" fill="#3B82F6"/>
  <circle cx="272" cy="210" r="8" fill="#3B82F6"/>
  <path d="M 180 250 Q 140 240 120 260 L 110 270 Q 100 280 110 290 L 120 280 Q 140 260 180 270 Z" fill="white" opacity="0.9"/>
  <path d="M 332 250 Q 372 240 392 260 L 402 270 Q 412 280 402 290 L 392 280 Q 372 260 332 270 Z" fill="white" opacity="0.9"/>
  <ellipse cx="256" cy="340" rx="60" ry="30" fill="white" opacity="0.85"/>
  <ellipse cx="256" cy="380" rx="45" ry="25" fill="white" opacity="0.75"/>
  <text x="256" y="290" font-family="Arial, sans-serif" font-size="60" font-weight="bold" fill="#3B82F6" text-anchor="middle">M</text>
</svg>
