<svg width="32" height="32" viewBox="0 0 512 512" fill="none" xmlns="http://www.w3.org/2000/svg">
  <circle cx="256" cy="256" r="256" fill="url(#gradient)"/>
  <defs>
    <linearGradient id="gradient" x1="0%" y1="0%" x2="100%" y2="100%">
      <stop offset="0%" style="stop-color:#3B82F6;stop-opacity:1" />
      <stop offset="100%" style="stop-color:#8B5CF6;stop-opacity:1" />
    </linearGradient>
  </defs>
  <ellipse cx="256" cy="280" rx="85" ry="65" fill="white" opacity="0.95"/>
  <ellipse cx="256" cy="215" rx="48" ry="50" fill="white" opacity="0.95"/>
  <ellipse cx="256" cy="180" rx="55" ry="25" fill="#FCD34D" opacity="0.9"/>
  <rect x="220" y="170" width="72" height="15" rx="7" fill="#F59E0B" opacity="0.9"/>
  <line x1="235" y1="205" x2="245" y2="210" stroke="#3B82F6" stroke-width="4" stroke-linecap="round"/>
  <line x1="267" y1="210" x2="277" y2="205" stroke="#3B82F6" stroke-width="4" stroke-linecap="round"/>
  <path d="M 170 250 Q 130 240 110 260 L 100 270 Q 90 280 100 290 L 110 280 Q 130 260 170 270 Z" fill="white" opacity="0.9"/>
  <rect x="80" y="275" width="35" height="8" rx="4" fill="#9CA3AF" opacity="0.8"/>
  <path d="M 342 250 Q 382 240 402 260 L 412 270 Q 422 280 412 290 L 402 280 Q 382 260 342 270 Z" fill="white" opacity="0.9"/>
  <rect x="395" y="265" width="30" height="25" rx="2" fill="#3B82F6" opacity="0.8"/>
  <rect x="200" y="295" width="112" height="12" rx="6" fill="#F59E0B" opacity="0.85"/>
  <ellipse cx="256" cy="340" rx="65" ry="32" fill="white" opacity="0.8"/>
  <ellipse cx="256" cy="380" rx="50" ry="28" fill="white" opacity="0.7"/>
</svg>
