<svg width="512" height="512" viewBox="0 0 512 512" fill="none" xmlns="http://www.w3.org/2000/svg">
  <!-- Background circle gradient -->
  <circle cx="256" cy="256" r="256" fill="url(#gradient)"/>
  
  <!-- Define gradient -->
  <defs>
    <linearGradient id="gradient" x1="0%" y1="0%" x2="100%" y2="100%">
      <stop offset="0%" style="stop-color:#3B82F6;stop-opacity:1" />
      <stop offset="100%" style="stop-color:#8B5CF6;stop-opacity:1" />
    </linearGradient>
  </defs>
  
  <!-- Lobster/Crab simplified icon -->
  <!-- Body -->
  <ellipse cx="256" cy="280" rx="80" ry="60" fill="white" opacity="0.95"/>
  
  <!-- Head -->
  <circle cx="256" cy="220" r="45" fill="white" opacity="0.95"/>
  
  <!-- Eyes -->
  <circle cx="240" cy="210" r="8" fill="#3B82F6"/>
  <circle cx="272" cy="210" r="8" fill="#3B82F6"/>
  
  <!-- Claws (left) -->
  <path d="M 180 250 Q 140 240 120 260 L 110 270 Q 100 280 110 290 L 120 280 Q 140 260 180 270 Z" fill="white" opacity="0.9"/>
  
  <!-- Claws (right) -->
  <path d="M 332 250 Q 372 240 392 260 L 402 270 Q 412 280 402 290 L 392 280 Q 372 260 332 270 Z" fill="white" opacity="0.9"/>
  
  <!-- Tail segments -->
  <ellipse cx="256" cy="340" rx="60" ry="30" fill="white" opacity="0.85"/>
  <ellipse cx="256" cy="380" rx="45" ry="25" fill="white" opacity="0.75"/>
  <path d="M 230 390 L 220 420 L 240 410 Z" fill="white" opacity="0.7"/>
  <path d="M 256 395 L 256 430 L 256 410 Z" fill="white" opacity="0.7"/>
  <path d="M 282 390 L 292 420 L 272 410 Z" fill="white" opacity="0.7"/>
  
  <!-- Antennas -->
  <path d="M 240 200 Q 220 160 200 140" stroke="white" stroke-width="4" stroke-linecap="round" fill="none" opacity="0.8"/>
  <path d="M 272 200 Q 292 160 312 140" stroke="white" stroke-width="4" stroke-linecap="round" fill="none" opacity="0.8"/>
  
  <!-- Letter M (for MoltWork) in the center -->
  <text x="256" y="290" font-family="Arial, sans-serif" font-size="60" font-weight="bold" fill="#3B82F6" text-anchor="middle">M</text>
</svg>
