<svg width="512" height="512" viewBox="0 0 512 512" fill="none" xmlns="http://www.w3.org/2000/svg">
  <!-- Background gradient -->
  <circle cx="256" cy="256" r="256" fill="url(#gradient)"/>
  
  <defs>
    <linearGradient id="gradient" x1="0%" y1="0%" x2="100%" y2="100%">
      <stop offset="0%" style="stop-color:#3B82F6;stop-opacity:1" />
      <stop offset="100%" style="stop-color:#8B5CF6;stop-opacity:1" />
    </linearGradient>
  </defs>
  
  <!-- Working Lobster Body -->
  <ellipse cx="256" cy="280" rx="85" ry="65" fill="white" opacity="0.95"/>
  
  <!-- Head (slightly tilted forward - working hard) -->
  <ellipse cx="256" cy="215" rx="48" ry="50" fill="white" opacity="0.95"/>
  
  <!-- Hard hat / Safety helmet -->
  <ellipse cx="256" cy="180" rx="55" ry="25" fill="#FCD34D" opacity="0.9"/>
  <rect x="220" y="170" width="72" height="15" rx="7" fill="#F59E0B" opacity="0.9"/>
  
  <!-- Tired/Determined eyes -->
  <line x1="235" y1="205" x2="245" y2="210" stroke="#3B82F6" stroke-width="4" stroke-linecap="round"/>
  <line x1="267" y1="210" x2="277" y2="205" stroke="#3B82F6" stroke-width="4" stroke-linecap="round"/>
  
  <!-- Left claw - holding wrench -->
  <path d="M 170 250 Q 130 240 110 260 L 100 270 Q 90 280 100 290 L 110 280 Q 130 260 170 270 Z" fill="white" opacity="0.9"/>
  <!-- Wrench -->
  <rect x="80" y="275" width="35" height="8" rx="4" fill="#9CA3AF" opacity="0.8"/>
  <circle cx="80" cy="279" r="6" fill="#6B7280" opacity="0.8"/>
  
  <!-- Right claw - holding laptop/tablet -->
  <path d="M 342 250 Q 382 240 402 260 L 412 270 Q 422 280 412 290 L 402 280 Q 382 260 342 270 Z" fill="white" opacity="0.9"/>
  <!-- Laptop/tablet -->
  <rect x="395" y="265" width="30" height="25" rx="2" fill="#3B82F6" opacity="0.8"/>
  <rect x="397" y="267" width="26" height="18" rx="1" fill="#60A5FA" opacity="0.6"/>
  
  <!-- Tool belt around body -->
  <rect x="200" y="295" width="112" height="12" rx="6" fill="#F59E0B" opacity="0.85"/>
  <circle cx="230" cy="301" r="4" fill="#FCD34D"/>
  <circle cx="256" cy="301" r="4" fill="#FCD34D"/>
  <circle cx="282" cy="301" r="4" fill="#FCD34D"/>
  
  <!-- Sweat drops (working hard!) -->
  <circle cx="220" cy="200" r="4" fill="#60A5FA" opacity="0.6"/>
  <circle cx="292" cy="200" r="4" fill="#60A5FA" opacity="0.6"/>
  
  <!-- Tail segments (tired, dragging) -->
  <ellipse cx="256" cy="340" rx="65" ry="32" fill="white" opacity="0.8"/>
  <ellipse cx="256" cy="380" rx="50" ry="28" fill="white" opacity="0.7"/>
  <ellipse cx="256" cy="415" rx="35" ry="22" fill="white" opacity="0.6"/>
  
  <!-- Coffee cup next to lobster (essential for work!) -->
  <rect x="330" y="320" width="25" height="30" rx="3" fill="#D97706" opacity="0.8"/>
  <ellipse cx="342.5" cy="320" rx="13" ry="5" fill="#92400E" opacity="0.6"/>
  <path d="M 355 330 Q 370 330 370 340" stroke="#D97706" stroke-width="3" fill="none" opacity="0.7"/>
  
  <!-- Steam from coffee -->
  <path d="M 335 310 Q 335 300 338 295" stroke="white" stroke-width="2" stroke-linecap="round" fill="none" opacity="0.5"/>
  <path d="M 342 310 Q 342 298 345 292" stroke="white" stroke-width="2" stroke-linecap="round" fill="none" opacity="0.5"/>
  <path d="M 350 310 Q 350 300 347 295" stroke="white" stroke-width="2" stroke-linecap="round" fill="none" opacity="0.5"/>
</svg>
